<svg width="30" height="30" viewBox="0 0 30 30" fill="none" xmlns="http://www.w3.org/2000/svg">
<path d="M16.1519 26.7841C16 26.7841 15.8522 26.7333 15.7312 26.6396C15.6103 26.5459 15.5228 26.4143 15.4822 26.2651C15.4416 26.116 15.4501 25.9573 15.5064 25.8135C15.5627 25.6697 15.6636 25.5486 15.7939 25.4689C18.2571 23.9616 18.2571 20.7248 18.2571 18.7912C18.2571 18.2276 18.4768 17.6871 18.868 17.2887C19.2591 16.8902 19.7896 16.6663 20.3428 16.6663C20.896 16.6663 21.4265 16.8902 21.8176 17.2887C22.2087 17.6871 22.4285 18.2276 22.4285 18.7912C22.4285 18.979 22.3552 19.1592 22.2249 19.292C22.0945 19.4248 21.9176 19.4994 21.7333 19.4994C21.5489 19.4994 21.372 19.4248 21.2417 19.292C21.1113 19.1592 21.038 18.979 21.038 18.7912C21.038 18.6033 20.9648 18.4232 20.8344 18.2903C20.704 18.1575 20.5272 18.0829 20.3428 18.0829C20.1584 18.0829 19.9816 18.1575 19.8512 18.2903C19.7208 18.4232 19.6476 18.6033 19.6476 18.7912C19.6476 20.8785 19.6476 24.7648 16.5093 26.6836C16.4013 26.7494 16.2778 26.7842 16.1519 26.7841ZM19.6024 27.7906C21.1889 26.1616 22.1156 23.871 22.3562 20.9762C22.3643 20.8834 22.3543 20.7898 22.3269 20.7009C22.2994 20.6119 22.255 20.5294 22.1961 20.458C22.1373 20.3866 22.0652 20.3277 21.984 20.2848C21.9027 20.2418 21.814 20.2157 21.7228 20.2077C21.6316 20.1982 21.5394 20.2075 21.4518 20.235C21.3641 20.2625 21.2828 20.3077 21.2127 20.3679C21.1426 20.4281 21.0851 20.5021 21.0436 20.5854C21.0021 20.6688 20.9775 20.7598 20.9713 20.853C20.7551 23.4432 19.9847 25.386 18.6158 26.7891C18.4858 26.9224 18.4131 27.1028 18.4137 27.2907C18.4143 27.4786 18.4881 27.6585 18.619 27.791C18.7498 27.9234 18.9269 27.9975 19.1113 27.9969C19.2957 27.9963 19.4724 27.9211 19.6024 27.7878V27.7906ZM23.2176 27.6589C23.6393 26.945 23.9905 26.1903 24.266 25.4058C24.3236 25.2304 24.3115 25.0389 24.2324 24.8724C24.1532 24.7059 24.0132 24.5776 23.8424 24.5149C23.6716 24.4521 23.4834 24.46 23.3182 24.5367C23.153 24.6135 23.0238 24.7531 22.9583 24.9256C22.7135 25.6212 22.4019 26.2905 22.028 26.9237C21.9806 27.0032 21.9491 27.0915 21.9352 27.1835C21.9213 27.2755 21.9254 27.3694 21.9471 27.4598C21.9688 27.5502 22.0078 27.6354 22.0618 27.7104C22.1159 27.7855 22.1839 27.8489 22.262 27.8972C22.4197 27.9947 22.609 28.0244 22.7882 27.9797C22.877 27.9575 22.9606 27.9178 23.0342 27.8628C23.1079 27.8077 23.1702 27.7384 23.2176 27.6589ZM24.8618 23.1761C25.1194 21.7297 25.2358 20.2609 25.2094 18.7912C25.2088 17.7877 24.9093 16.8081 24.3505 15.9818C23.7917 15.1555 23 14.5213 22.08 14.1631C21.1599 13.8049 20.1549 13.7396 19.1976 13.9757C18.2403 14.2118 17.3759 14.7383 16.7185 15.4856C16.6545 15.5543 16.6047 15.6354 16.572 15.7241C16.5393 15.8127 16.5243 15.9072 16.5281 16.0019C16.5319 16.0965 16.5542 16.1894 16.5939 16.2751C16.6335 16.3608 16.6896 16.4376 16.7589 16.5008C16.8281 16.564 16.9091 16.6124 16.9971 16.6431C17.085 16.6739 17.1781 16.6864 17.2709 16.6798C17.3637 16.6733 17.4542 16.6478 17.5371 16.605C17.6201 16.5621 17.6937 16.5028 17.7537 16.4304C18.2232 15.8966 18.8407 15.5204 19.5244 15.3517C20.2082 15.183 20.9262 15.2296 21.5834 15.4854C22.2406 15.7412 22.8062 16.1942 23.2054 16.7844C23.6045 17.3746 23.8185 18.0744 23.819 18.7912C23.8446 20.17 23.737 21.5482 23.4978 22.9056C23.4626 23.0898 23.5008 23.2808 23.6038 23.4364C23.7067 23.5921 23.8662 23.6997 24.047 23.7357C24.0912 23.7447 24.1361 23.7492 24.1812 23.7491C24.3422 23.7487 24.4981 23.6914 24.6222 23.5869C24.7464 23.4823 24.831 23.3372 24.8618 23.1761ZM16.8666 18.7912C16.8664 18.5935 16.8825 18.3961 16.9146 18.2012C16.9354 18.1073 16.9371 18.0101 16.9198 17.9155C16.9025 17.821 16.8664 17.731 16.8139 17.6511C16.7613 17.5712 16.6933 17.503 16.614 17.4507C16.5347 17.3985 16.4457 17.3632 16.3526 17.3472C16.2595 17.3311 16.1642 17.3345 16.0724 17.3572C15.9806 17.3798 15.8944 17.4213 15.8189 17.4791C15.7433 17.5369 15.6802 17.6097 15.6332 17.6932C15.5863 17.7767 15.5565 17.869 15.5457 17.9646C15.4998 18.2376 15.4765 18.5141 15.4762 18.7912C15.4762 22.0811 14.5404 23.7491 12.6952 23.7491C12.5108 23.7491 12.334 23.8238 12.2036 23.9566C12.0732 24.0894 12 24.2696 12 24.4574C12 24.6453 12.0732 24.8254 12.2036 24.9583C12.334 25.0911 12.5108 25.1657 12.6952 25.1657C15.3851 25.1657 16.8666 22.8992 16.8666 18.7912ZM26.3913 27.5838C27.5355 24.8032 28.0807 21.8048 27.9903 18.7912C27.9936 17.6146 27.7319 16.453 27.2256 15.3956C27.1856 15.3119 27.1299 15.2371 27.0616 15.1753C26.9932 15.1135 26.9136 15.0661 26.8273 15.0357C26.7409 15.0052 26.6495 14.9924 26.5583 14.998C26.4671 15.0036 26.3779 15.0274 26.2957 15.0681C26.2136 15.1088 26.1401 15.1655 26.0794 15.2352C26.0188 15.3048 25.9722 15.3859 25.9424 15.4739C25.9125 15.5619 25.8999 15.655 25.9054 15.7479C25.9109 15.8408 25.9342 15.9317 25.9742 16.0154C26.3879 16.8799 26.6019 17.8294 26.5999 18.7912C26.6874 21.6022 26.1852 24.3999 25.1267 26.9973C25.089 27.0822 25.0681 27.1737 25.0652 27.2668C25.0623 27.3598 25.0774 27.4525 25.1097 27.5396C25.1419 27.6267 25.1908 27.7065 25.2533 27.7744C25.3159 27.8422 25.391 27.8968 25.4743 27.9351C25.5644 27.9773 25.6623 27.999 25.7614 27.9989C25.8944 27.9983 26.0244 27.9589 26.136 27.8853C26.2477 27.8117 26.3363 27.7071 26.3913 27.5838ZM14.0857 20.916V18.7912C14.0875 17.1011 14.7474 15.4808 15.9204 14.2857C17.0934 13.0907 18.6839 12.4185 20.3428 12.4166C21.6974 12.412 23.0161 12.8598 24.097 13.6915C24.2446 13.8042 24.43 13.8526 24.6125 13.8261C24.795 13.7995 24.9597 13.7001 25.0704 13.5499C25.181 13.3996 25.2285 13.2107 25.2024 13.0247C25.1764 12.8388 25.0788 12.671 24.9313 12.5583C23.6099 11.5422 21.9983 10.9949 20.3428 11C18.3153 11.0025 16.3715 11.8241 14.9378 13.2847C13.5041 14.7453 12.6976 16.7256 12.6952 18.7912V20.916C12.6952 21.1039 12.7685 21.284 12.8989 21.4168C13.0292 21.5497 13.2061 21.6243 13.3905 21.6243C13.5749 21.6243 13.7517 21.5497 13.8821 21.4168C14.0125 21.284 14.0857 21.1039 14.0857 20.916Z" fill="#4C4C4E"/>
<path d="M12 8.25C12 8.595 11.72 8.875 11.375 8.875C11.03 8.875 10.75 8.595 10.75 8.25C10.75 7.905 11.03 7.625 11.375 7.625C11.72 7.625 12 7.905 12 8.25ZM7.625 8.875C7.97 8.875 8.25 8.595 8.25 8.25C8.25 7.905 7.97 7.625 7.625 7.625C7.28 7.625 7 7.905 7 8.25C7 8.595 7.28 8.875 7.625 8.875ZM9.5 14.5C6.74312 14.5 4.5 12.2569 4.5 9.5C4.5 6.74312 6.74312 4.5 9.5 4.5C12.2569 4.5 14.5 6.74312 14.5 9.5C14.5 12.2569 12.2569 14.5 9.5 14.5ZM13.875 9.5C13.875 7.0875 11.9119 5.125 9.5 5.125C7.08812 5.125 5.125 7.0875 5.125 9.5C5.125 11.9125 7.08812 13.875 9.5 13.875C11.9119 13.875 13.875 11.9125 13.875 9.5ZM11.4669 10.5288C11.4581 10.5375 10.5994 11.375 9.5 11.375C8.40062 11.375 7.54125 10.5369 7.53312 10.5288C7.41125 10.4081 7.2125 10.4081 7.09188 10.53C6.97 10.6525 6.97 10.8494 7.09188 10.9713C7.13375 11.0131 8.13688 12 9.50063 12C10.8644 12 11.8669 11.0131 11.9094 10.9713C12.0313 10.8494 12.0313 10.6525 11.9094 10.53C11.7888 10.4081 11.59 10.4081 11.4681 10.5288H11.4669ZM6.6875 16.375H4.8125C3.60625 16.375 2.625 15.3938 2.625 14.1875V12.3125C2.625 12.14 2.485 12 2.3125 12C2.14 12 2 12.14 2 12.3125V14.1875C2 15.7381 3.26187 17 4.8125 17H6.6875C6.86 17 7 16.86 7 16.6875C7 16.515 6.86 16.375 6.6875 16.375ZM14.1875 2H12.3125C12.14 2 12 2.14 12 2.3125C12 2.485 12.14 2.625 12.3125 2.625H14.1875C15.3938 2.625 16.375 3.60625 16.375 4.8125V6.6875C16.375 6.86 16.515 7 16.6875 7C16.86 7 17 6.86 17 6.6875V4.8125C17 3.26187 15.7381 2 14.1875 2ZM2.3125 7C2.485 7 2.625 6.86 2.625 6.6875V4.8125C2.625 3.60625 3.60625 2.625 4.8125 2.625H6.6875C6.86 2.625 7 2.485 7 2.3125C7 2.14 6.86 2 6.6875 2H4.8125C3.26187 2 2 3.26187 2 4.8125V6.6875C2 6.86 2.14 7 2.3125 7Z" fill="#4C4C4E" stroke="#4C4C4E" stroke-width="0.6" stroke-linecap="round" stroke-linejoin="round"/>
</svg>
