<svg width="30" height="30" viewBox="0 0 30 30" fill="none" xmlns="http://www.w3.org/2000/svg">
<path d="M5.99938 18.312L4.99138 17.576L6.04738 15.752L4.14338 14.904L4.52738 13.72L6.57538 14.168L6.78338 12.072H8.04738L8.23938 14.184L10.2874 13.72L10.6714 14.904L8.75138 15.752L9.83938 17.576L8.81538 18.312L7.40738 16.712L5.99938 18.312ZM14.0931 18.312L13.0851 17.576L14.1411 15.752L12.2371 14.904L12.6211 13.72L14.6691 14.168L14.8771 12.072H16.1411L16.3331 14.184L18.3811 13.72L18.7651 14.904L16.8451 15.752L17.9331 17.576L16.9091 18.312L15.5011 16.712L14.0931 18.312ZM22.1869 18.312L21.1789 17.576L22.2349 15.752L20.3309 14.904L20.7149 13.72L22.7629 14.168L22.9709 12.072H24.2349L24.4269 14.184L26.4749 13.72L26.8589 14.904L24.9389 15.752L26.0269 17.576L25.0029 18.312L23.5949 16.712L22.1869 18.312Z" fill="#4C4C4E"/>
</svg>
